<?xml version="1.0" encoding="UTF-8"?>
<svg width="20px" height="16px" viewBox="0 0 20 16" version="1.1" xmlns="http://www.w3.org/2000/svg" xmlns:xlink="http://www.w3.org/1999/xlink">
    <title>关闭按钮</title>
    <g id="页面-1" stroke="none" stroke-width="1" fill="none" fill-rule="evenodd">
        <g id="导航未展开" transform="translate(-364.000000, -92.000000)" fill="#FFFFFF" fill-rule="nonzero">
            <g id="编组" transform="translate(360.000000, 86.000000)">
                <path d="M23,6 C23.5522847,6 24,6.44771525 24,7 C24,7.51283584 23.6139598,7.93550716 23.1166211,7.99327227 L23,8 L5,8 C4.44771525,8 4,7.55228475 4,7 C4,6.48716416 4.38604019,6.06449284 4.88337887,6.00672773 L5,6 L23,6 Z" id="路径-4"></path>
                <path d="M23,13 C23.5522847,13 24,13.4477153 24,14 C24,14.5128358 23.6139598,14.9355072 23.1166211,14.9932723 L23,15 L5,15 C4.44771525,15 4,14.5522847 4,14 C4,13.4871642 4.38604019,13.0644928 4.88337887,13.0067277 L5,13 L23,13 Z" id="路径-4备份"></path>
                <path d="M23,20 C23.5522847,20 24,20.4477153 24,21 C24,21.5128358 23.6139598,21.9355072 23.1166211,21.9932723 L23,22 L5,22 C4.44771525,22 4,21.5522847 4,21 C4,20.4871642 4.38604019,20.0644928 4.88337887,20.0067277 L5,20 L23,20 Z" id="路径-4备份-2"></path>
            </g>
        </g>
    </g>
</svg>