<?xml version="1.0" encoding="UTF-8"?>
<svg width="34px" height="20px" viewBox="0 0 34 20" version="1.1" xmlns="http://www.w3.org/2000/svg" xmlns:xlink="http://www.w3.org/1999/xlink">
    <title>WDIL</title>
    <g id="页面-1" stroke="none" stroke-width="1" fill="none" fill-rule="evenodd">
        <g id="导航未展开" transform="translate(-30.000000, -90.000000)" fill="#FFFFFF" fill-rule="nonzero">
            <path d="M37.0927021,110 C39.3533243,110 40.5966665,109.101124 41.5009154,108.061798 C42.8675642,106.488764 42.9932581,103.661926 43,101.245669 L43,100.73479 C42.9996745,100.566996 42.9991508,100.401904 42.9988378,100.24012 L42.9985776,100 C42.9985776,99.7625128 42.9995117,99.5169004 43,99.2652099 L43,98.7543315 C42.9932581,96.3380743 42.8675642,93.511236 41.5009154,91.9382022 C40.5966665,90.8988764 39.3533243,90 37.0927021,90 L30,90 L30,110 L37.0927021,110 Z M37.0113636,106 L34,106 L34,94 L37.0113636,94 C37.75,94 38.2613636,94.3421053 38.5170455,94.8157895 C38.9827516,95.6531955 38.999384,97.738554 39,99.7505035 L39,99.9736842 C39,102.052632 39,104.315789 38.5170455,105.184211 C38.2613636,105.657895 37.75,106 37.0113636,106 Z M51,110 L51,90 L47,90 L47,110 L51,110 Z M64,110 L64,106.404494 L58.0226629,106.404494 L58.0226629,90 L54,90 L54,110 L64,110 Z" id="WDIL"></path>
        </g>
    </g>
</svg>