<?xml version="1.0" encoding="UTF-8"?>
<svg width="83px" height="29px" viewBox="0 0 83 29" version="1.1" xmlns="http://www.w3.org/2000/svg" xmlns:xlink="http://www.w3.org/1999/xlink">
    <title>WDIL</title>
    <g id="页面-1" stroke="none" stroke-width="1" fill="none" fill-rule="evenodd">
        <g id="PC-HOME" transform="translate(-144.000000, -16.000000)" fill="#FFFFFF" fill-rule="nonzero">
            <path d="M155.88,44.48 L159.56,24.32 L163.24,44.48 L169.16,44.48 L175.12,16 L168.88,16 L166.2,36.12 L162.68,16 L156.44,16 L152.92,36.12 L150.24,16 L144,16 L149.96,44.48 L155.88,44.48 Z M188.631111,44.48 C191.831111,44.48 193.591111,43.2 194.871111,41.72 C196.805657,39.48 196.983581,35.4545822 196.993125,32.013832 L196.993125,31.2863411 C196.992664,31.047403 196.991923,30.8123115 196.99148,30.5819306 L196.991111,30.24 C196.991111,29.9018182 196.992433,29.5520661 196.993125,29.1936589 L196.993125,28.466168 C196.983581,25.0254178 196.805657,21 194.871111,18.76 C193.591111,17.28 191.831111,16 188.631111,16 L178.591111,16 L178.591111,44.48 L188.631111,44.48 Z M188.511111,39.36 L184.271111,39.36 L184.271111,21.12 L188.511111,21.12 C189.551111,21.12 190.271111,21.64 190.631111,22.36 C191.286825,23.6328571 191.310244,26.802602 191.311111,29.8607653 L191.311111,30.2 C191.311111,33.36 191.311111,36.8 190.631111,38.12 C190.271111,38.84 189.551111,39.36 188.511111,39.36 Z M207.342222,44.48 L207.342222,16 L201.662222,16 L201.662222,44.48 L207.342222,44.48 Z M226.973333,44.48 L226.973333,39.36 L218.533333,39.36 L218.533333,16 L212.853333,16 L212.853333,44.48 L226.973333,44.48 Z" id="WDIL"></path>
        </g>
    </g>
</svg>