<?xml version="1.0" encoding="UTF-8"?>
<svg width="49px" height="29px" viewBox="0 0 49 29" version="1.1" xmlns="http://www.w3.org/2000/svg" xmlns:xlink="http://www.w3.org/1999/xlink">
    <title>WDIL</title>
    <g id="页面-1" stroke="none" stroke-width="1" fill="none" fill-rule="evenodd">
        <g id="PC-HOME" transform="translate(-704.000000, -16.000000)" fill="#FFFFFF" fill-rule="nonzero">
            <path d="M714.04,44.48 C717.24,44.48 719,43.2 720.28,41.72 C722.214545,39.48 722.39247,35.4545822 722.402014,32.013832 L722.402014,31.2863411 C722.401553,31.047403 722.400811,30.8123115 722.400368,30.5819306 L722.4,30.24 C722.4,29.9018182 722.401322,29.5520661 722.402014,29.1936589 L722.402014,28.466168 C722.39247,25.0254178 722.214545,21 720.28,18.76 C719,17.28 717.24,16 714.04,16 L704,16 L704,44.48 L714.04,44.48 Z M713.92,39.36 L709.68,39.36 L709.68,21.12 L713.92,21.12 C714.96,21.12 715.68,21.64 716.04,22.36 C716.695714,23.6328571 716.719133,26.802602 716.72,29.8607653 L716.72,30.2 C716.72,33.36 716.72,36.8 716.04,38.12 C715.68,38.84 714.96,39.36 713.92,39.36 Z M732.751111,44.48 L732.751111,16 L727.071111,16 L727.071111,44.48 L732.751111,44.48 Z M752.382222,44.48 L752.382222,39.36 L743.942222,39.36 L743.942222,16 L738.262222,16 L738.262222,44.48 L752.382222,44.48 Z" id="WDIL"></path>
        </g>
    </g>
</svg>